<svg xmlns="http://www.w3.org/2000/svg" version="1.1" viewBox="-5.0 -10.0 110.0 135.0">
 <path d="m58.703 19.508c-3.3789 0.10547-6.6094 1.3984-9.1289 3.6523-2.6797-2.0117-5.9414-3.0977-9.2891-3.0977-3.3516 0-6.6094 1.0859-9.2891 3.0977-2.5156-2.2539-5.7461-3.5469-9.1211-3.6523-0.86328 0-1.5625 0.69922-1.5625 1.5625 0 0.86328 0.69922 1.5625 1.5625 1.5625 2.5508 0.097657 4.9922 1.0664 6.918 2.7461-0.46484 0.58203-0.87109 1.2109-1.2188 1.875-0.38672 0.76953-0.078125 1.7109 0.69531 2.0977 0.76953 0.39063 1.7109 0.078126 2.0977-0.69141 2.0312-3.5312 5.8555-5.6406 9.9219-5.4766 4.0664-0.16016 7.8828 1.9492 9.9102 5.4766 0.39062 0.76172 1.3242 1.0664 2.0938 0.67969 0.76562-0.38281 1.0781-1.3164 0.69531-2.0859-0.34375-0.66406-0.75-1.293-1.2148-1.875 1.9336-1.668 4.375-2.6367 6.9297-2.7461 0.86328 0 1.5625-0.69922 1.5625-1.5625 0-0.86328-0.69922-1.5625-1.5625-1.5625z" fill="white"/>
 <path d="m80.293 13.383c0-0.86328-0.69922-1.5625-1.5625-1.5625s-1.5625 0.69922-1.5625 1.5625c-0.125 3.2344-0.94141 6.4023-2.3906 9.2969-1.2773-8.4258-5.7812-15.711-11.766-18.508-3.6484-1.8672-8.0625-1.3555-11.184 1.2969-1.1445 0.92188-2.2227 1.7812-3.2344 2.5703-4.8867 3.7852-11.715 3.793-16.609 0.019532-1.0156-0.79297-2.1055-1.6484-3.25-2.5859-4.4531-3.6211-10.246-3.0859-15.129 1.4062-7.4883 6.8828-13.051 23.902-1.9531 40.172 1.6484 2.3867 2.5469 5.207 2.5898 8.1055 0.10937 10.758 1.6758 30.207 10.914 39.609 1.2266 1.2734 2.8516 2.6562 4.5312 2.0039 2.1445-0.83203 2.2188-3.832 2.3438-9.2812 0.19531-7.9688 0.48438-19.898 8.2578-25.266 7.7695 5.3672 8.0625 17.293 8.2578 25.266 0.13281 5.4453 0.20703 8.4453 2.3438 9.2812v0.003907c0.28125 0.10937 0.58203 0.16406 0.88281 0.16406 1.4414-0.23047 2.7422-1.0039 3.6328-2.1602 9.207-9.375 10.797-28.836 10.926-39.605 0.039063-2.8984 0.94141-5.7227 2.5859-8.1094 1.6328-2.3828 2.9805-4.9492 4.0156-7.6484 2.6641 3.4766 4.1445 7.7109 4.2344 12.09 0 0.86328 0.69922 1.5625 1.5625 1.5625s1.5625-0.69922 1.5625-1.5625c0.92578-15.383 12.453-17.43 12.957-17.512 0.76172-0.11719 1.3203-0.77344 1.3203-1.543s-0.55859-1.4258-1.3203-1.543c-0.48828-0.089844-12.031-2.1328-12.957-17.523zm-13.949 31.91c-1.9922 2.8984-3.082 6.3281-3.125 9.8438-0.097656 8.2891-1.2734 28.539-10.043 37.461v0.003906c-0.32812 0.35156-0.6875 0.67969-1.0742 0.97266-0.30469-2.0391-0.44922-4.0977-0.42578-6.1602-0.21875-8.9219-0.54688-22.402-10.562-28.375l-0.003906-0.003906c-0.50391-0.28516-1.125-0.28516-1.6328 0-10.02 5.9648-10.352 19.449-10.57 28.371 0.023438 2.0625-0.12109 4.125-0.42578 6.1641-0.39062-0.30078-0.75781-0.62891-1.0938-0.98828-8.8008-8.957-9.9453-29.184-10.031-37.465-0.046875-3.5117-1.1328-6.9297-3.125-9.8242-9.9336-14.574-4.9805-30.168 1.4961-36.117 1.7812-1.6367 6.4219-5.0391 11.035-1.2812 1.1602 0.94922 2.2734 1.8203 3.3125 2.6328h-0.003907c2.9297 2.2617 6.5273 3.4844 10.23 3.4805 3.6992-0.003906 7.293-1.2344 10.219-3.5039 1.0273-0.80469 2.1211-1.6719 3.2812-2.6055 2.1992-1.8828 5.3242-2.2344 7.8945-0.89453 4.9336 2.3047 9.9766 9.7188 10.312 19.52-2.1016 2.1992-4.8125 3.7227-7.7812 4.375-0.76562 0.11328-1.3281 0.76953-1.3281 1.543 0 0.77344 0.5625 1.4297 1.3281 1.543 2.2891 0.48438 4.4336 1.5 6.2578 2.9688-0.98047 2.9609-2.375 5.7695-4.1406 8.3398zm12.391-1.8438v0.003906c-1.082-3.0352-2.8828-5.7578-5.2539-7.9375-0.097657-0.125-0.21484-0.23438-0.34766-0.32422-1.2383-1.082-2.6094-2.0078-4.082-2.75 2.0508-1.0352 3.9023-2.4219 5.4688-4.1016 0.16797-0.125 0.30859-0.28516 0.41016-0.46875 1.6602-1.8906 2.9492-4.0781 3.8047-6.4453 1.6758 4.7891 5.1523 8.7383 9.6875 11.012-4.5391 2.2734-8.0117 6.2227-9.6875 11.016z" fill="white"/>
</svg>